<svg xmlns="http://www.w3.org/2000/svg" viewBox="0 0 748.61 191.26"><defs><style>.cls-1,.cls-2,.cls-3{fill:none;stroke:#000;stroke-linejoin:bevel;}.cls-1{stroke-width:2.73px;}.cls-2{stroke-width:4.46px;}.cls-3{stroke-width:3.97px;}</style></defs><g id="Layer_2" data-name="Layer 2"><g id="Layer_1-2" data-name="Layer 1"><line class="cls-1" y1="50.69" x2="748.61" y2="50.69"/><line class="cls-1" y1="75.49" x2="748.61" y2="75.49"/><line class="cls-1" y1="100.29" x2="748.61" y2="100.29"/><line class="cls-1" y1="125.09" x2="748.61" y2="125.09"/><line class="cls-1" y1="149.89" x2="748.61" y2="149.89"/><line class="cls-2" x1="724.43" y1="49.33" x2="724.43" y2="151.26"/><line class="cls-3" x1="191.51" y1="25.89" x2="245.87" y2="25.89"/><path d="M218.74,0c-13.69,0-18.55,6.94-18.55,13.39s4.86,13.39,18.55,13.39,18.45-6.94,18.45-13.39S232.43,0,218.74,0m-8.23,9a4.83,4.83,0,0,1-.1-1.19A4.64,4.64,0,0,1,211,5.56a5.28,5.28,0,0,1,3.38-2,15.49,15.49,0,0,1,4.56-.49h.1c4,0,5.26,3.67,6.35,7.44l.3,1A23.1,23.1,0,0,1,226.88,18a7,7,0,0,1-.6,3.07A4.52,4.52,0,0,1,223,23.21a20.52,20.52,0,0,1-2.38.3c-.5,0-.9.1-1.29.1-3.18,0-5.16-1.19-6.55-5.46A64.2,64.2,0,0,1,210.51,9"/><path d="M82.68,119.27a28.18,28.18,0,0,0-4.61-10.21,22.24,22.24,0,0,0-11.79-8.4,24.73,24.73,0,0,0-8.47-.82c-1-6-2-11.79-2.92-17.2A84.51,84.51,0,0,0,66.15,66.5a54.61,54.61,0,0,0,4.63-11.27c1.71-5.16,2.06-12.8,1-20.95-1-7.49-3.07-14.14-5.41-17.37-1-1.41-2.06-2.14-3.09-2.14-1.21,0-3.7,1.23-6.57,4a36.13,36.13,0,0,0-8.06,12c-3,7-3.19,16.42-2.84,23.09a102.79,102.79,0,0,0,1.49,12.9c0,.09.28,1.58.72,4.13l-.71.68c-1,1-2.21,2.13-3.58,3.49-.86.86-1.8,1.76-2.79,2.72-8.38,8.08-21.07,20.3-21.07,39.3a31.82,31.82,0,0,0,2.66,13,31.21,31.21,0,0,0,6.76,9.67c7.67,7.49,18.18,10.68,25.18,10.52a48.71,48.71,0,0,0,7.91-.76c1.81,9.53,2.94,16.5,3,21.8,0,6.46-1.59,10.39-5.46,13.14a15.29,15.29,0,0,1-8.28,2.81,19.87,19.87,0,0,1-6.23-.75h0s-.28-.08-.29-.28.33-.23.34-.23h0a13.23,13.23,0,0,0,7.79-4.93,11.54,11.54,0,0,0,.82-11c-1.1-2.37-3.59-5.3-9.16-5.75a11.13,11.13,0,0,0-6.71,1.5,11.79,11.79,0,0,0-4.32,4.68A13.05,13.05,0,0,0,35,184.67c2.93,3.59,7.52,5.88,12.9,6.46a24,24,0,0,0,2.53.13,23.53,23.53,0,0,0,12.3-3.39c3.64-2.54,5.74-6.49,6.41-12.08.56-4.6.17-10.46-1.22-18.47-.35-2.07-.89-5.08-1.54-8.81,5.7-1.9,9.83-5.44,13.57-11.25a24.33,24.33,0,0,0,2.77-18m-33.93,26A30.05,30.05,0,0,1,36,138.09a20.12,20.12,0,0,1-4.61-6.74,24.35,24.35,0,0,1-2-10.1,31.57,31.57,0,0,1,3.86-14.18A58.38,58.38,0,0,1,46.73,90.76q2.16-1.91,4.08-3.81c.75,4.22,1.58,8.88,2.45,13.72a21.2,21.2,0,0,0-11.62,10c-3.51,6.52-3.37,12-2.64,15.44a15.55,15.55,0,0,0,6.87,10.23c.92.56,5,2.67,6.84,2.09a1.18,1.18,0,0,0,.78-.66C54,136.6,53,136,51.44,135c-.6-.37-1.26-.78-2-1.31a10.74,10.74,0,0,1-3.67-11.23,12.49,12.49,0,0,1,3.67-6.21,14.06,14.06,0,0,1,6-3.26c2,11.15,4.07,22.21,5.7,30.5.13.69.26,1.35.39,2a27.51,27.51,0,0,1-12.83-.27M60,112.33c10.26-.46,14.5,6.92,15.38,11.71a22.61,22.61,0,0,1-1.07,11.09,15.34,15.34,0,0,1-8.69,9.24c-.07-.42-.15-.85-.23-1.27-1.52-8.7-3.45-19.61-5.39-30.77M52.71,42a22.59,22.59,0,0,1,6.46-10.63,7.87,7.87,0,0,1,4.29-2.21,1.79,1.79,0,0,1,.36,0,3.14,3.14,0,0,1,1.44,1.57c2.3,4.26,1.56,10.91.23,15.32C63.87,51.41,61,57,52.25,66.51l-.48-3.11C50.53,55.18,50.85,48,52.71,42"/><path d="M110.31,88.17h17v7.36h-8.16a1.4,1.4,0,0,0-1.4,1.4v1.9a1.4,1.4,0,0,0,1.4,1.39h30a1.4,1.4,0,0,0,1.4-1.39v-1.9a1.4,1.4,0,0,0-1.4-1.4h-8.87V88.17h8.87a1.4,1.4,0,0,0,1.4-1.4V84.88a1.4,1.4,0,0,0-1.4-1.4h-8.87V67.65a1.38,1.38,0,0,0-.78-1.25l-1.2-.6a1.38,1.38,0,0,0-1.57.23l-9,8.25a1.42,1.42,0,0,0-.46,1v8.16H115.92S127,71.55,138.7,55.9a2,2,0,0,0,.18-2.37l-2.15-2.19a1.44,1.44,0,0,0-1-.41c-.6,0-14,0-14.76,0a1.36,1.36,0,0,0-1.32,1.21,74.22,74.22,0,0,1-3.11,15.37,55.72,55.72,0,0,1-8.13,16.59,2.19,2.19,0,0,0-.18,1.72c.34.74,1,1.83,1,1.83a1.18,1.18,0,0,0,1.1.52"/><path d="M110.31,137.51h17v7.36h-8.16a1.4,1.4,0,0,0-1.4,1.4v1.89a1.4,1.4,0,0,0,1.4,1.4h30a1.4,1.4,0,0,0,1.4-1.4v-1.89a1.4,1.4,0,0,0-1.4-1.4h-8.87v-7.36h8.87a1.4,1.4,0,0,0,1.4-1.4v-1.89a1.4,1.4,0,0,0-1.4-1.4h-8.87V117a1.4,1.4,0,0,0-.78-1.25l-1.2-.59a1.38,1.38,0,0,0-1.57.23l-9,8.25a1.41,1.41,0,0,0-.46,1v8.17H115.92s11-11.94,22.78-27.58a2,2,0,0,0,.18-2.37l-2.15-2.19a1.44,1.44,0,0,0-1-.41c-.6,0-14,0-14.76,0a1.35,1.35,0,0,0-1.32,1.21,74.22,74.22,0,0,1-3.11,15.37,55.72,55.72,0,0,1-8.13,16.59,2.18,2.18,0,0,0-.18,1.72c.34.74,1,1.82,1,1.82a1.17,1.17,0,0,0,1.1.53"/></g></g></svg>